<svg xmlns="http://www.w3.org/2000/svg" viewBox="0 0 186.57 185.75"><defs><style>.cls-1{fill:#def7e5;}.cls-2{fill:#92e3a9;}</style></defs><g id="OBJECTS"><path class="cls-1" d="M303.21,172q-3-3.31-8.74-3.32H267.58a9.93,9.93,0,0,1-5.86-1.44,5.9,5.9,0,0,1-2.26-4.57v-4.39a1.09,1.09,0,0,0-1.21-1.11h-16.5a1.09,1.09,0,0,0-1.21,1.11v4.39a5.9,5.9,0,0,1-2.26,4.57,9.93,9.93,0,0,1-5.86,1.44h-26.9q-5.73,0-8.73,3.32t-3,9.7v9.43a1.1,1.1,0,0,0,.32.78,1.06,1.06,0,0,0,.79.33h11a1.11,1.11,0,0,0,1.11-1.11v-2.22a4.51,4.51,0,0,1,1.52-3.51,5.59,5.59,0,0,1,3.93-1.39H238a17.32,17.32,0,0,0,7.48-1.38,8.84,8.84,0,0,0,4.26-4.35c.09-.19.19-.28.29-.26s.19.07.29.26a8.86,8.86,0,0,0,4.25,4.35A17.36,17.36,0,0,0,262,184h25.52a5.6,5.6,0,0,1,3.93,1.39,4.54,4.54,0,0,1,1.52,3.51v2.22a1.1,1.1,0,0,0,.32.78,1.07,1.07,0,0,0,.79.33h11a1.06,1.06,0,0,0,.79-.33,1.1,1.1,0,0,0,.32-.78v-9.43Q306.21,175.28,303.21,172Z" transform="translate(-156.71 -157.12)"/><path class="cls-1" d="M305.1,307.81h-11a1.1,1.1,0,0,0-.79.32,1.14,1.14,0,0,0-.32.79v2.22a4.52,4.52,0,0,1-1.52,3.51,5.65,5.65,0,0,1-3.93,1.39H262a17.14,17.14,0,0,0-7.48,1.38,8.84,8.84,0,0,0-4.26,4.35c-.09.19-.19.27-.29.26s-.19-.07-.29-.26a8.86,8.86,0,0,0-4.25-4.35A17.22,17.22,0,0,0,238,316H212.45a5.63,5.63,0,0,1-3.93-1.39,4.52,4.52,0,0,1-1.52-3.51v-2.22a1.14,1.14,0,0,0-.32-.79,1.1,1.1,0,0,0-.79-.32h-11a1.09,1.09,0,0,0-.79.32,1.14,1.14,0,0,0-.32.79v9.43c0,4.25,1,7.47,3,9.69s4.91,3.33,8.73,3.33h26.9a10,10,0,0,1,5.86,1.43,5.92,5.92,0,0,1,2.26,4.57v4.39a1.09,1.09,0,0,0,1.21,1.12h16.5a1.09,1.09,0,0,0,1.21-1.12v-4.39a5.92,5.92,0,0,1,2.26-4.57,10,10,0,0,1,5.86-1.43h26.9q5.73,0,8.73-3.33c2-2.22,3-5.44,3-9.69v-9.43a1.14,1.14,0,0,0-.32-.79A1.09,1.09,0,0,0,305.1,307.81Z" transform="translate(-156.71 -157.12)"/><path class="cls-2" d="M190.67,193.79h-9.43q-6.37,0-9.69,3c-2.22,2-3.33,4.92-3.33,8.73v26.9a10,10,0,0,1-1.44,5.87,5.92,5.92,0,0,1-4.57,2.25h-4.39a1.09,1.09,0,0,0-1.11,1.21v16.5a1.09,1.09,0,0,0,1.11,1.21h4.39a5.92,5.92,0,0,1,4.57,2.25,10,10,0,0,1,1.44,5.87v26.9c0,3.81,1.11,6.73,3.33,8.73s5.44,3,9.69,3h9.43a1,1,0,0,0,.78-.32,1.07,1.07,0,0,0,.33-.79v-11a1.11,1.11,0,0,0-1.11-1.11h-2.22a4.54,4.54,0,0,1-3.51-1.52,5.6,5.6,0,0,1-1.39-3.93V262a17.13,17.13,0,0,0-1.39-7.48,8.78,8.78,0,0,0-4.34-4.26c-.19-.09-.28-.19-.27-.29s.08-.2.27-.3a8.76,8.76,0,0,0,4.34-4.25,17.13,17.13,0,0,0,1.39-7.48V212.45a5.6,5.6,0,0,1,1.39-3.93,4.54,4.54,0,0,1,3.51-1.52h2.22a1.05,1.05,0,0,0,.78-.33,1,1,0,0,0,.33-.78v-11a1.11,1.11,0,0,0-1.11-1.1Z" transform="translate(-156.71 -157.12)"/><path class="cls-2" d="M342.18,240.54h-4.39a6,6,0,0,1-4.58-2.25,10.07,10.07,0,0,1-1.43-5.87v-26.9c0-3.81-1.11-6.73-3.33-8.73s-5.44-3-9.69-3h-9.43a1.09,1.09,0,0,0-1.11,1.1v11a1.06,1.06,0,0,0,.32.78,1.09,1.09,0,0,0,.79.33h2.22a4.54,4.54,0,0,1,3.51,1.52,5.6,5.6,0,0,1,1.39,3.93V238a17.29,17.29,0,0,0,1.38,7.48,8.82,8.82,0,0,0,4.35,4.25c.19.1.28.2.26.3s-.07.2-.26.29a8.84,8.84,0,0,0-4.35,4.26,17.29,17.29,0,0,0-1.38,7.48v25.52a5.6,5.6,0,0,1-1.39,3.93,4.54,4.54,0,0,1-3.51,1.52h-2.22a1.12,1.12,0,0,0-.79.32,1.1,1.1,0,0,0-.32.79v11a1.1,1.1,0,0,0,.32.79,1.08,1.08,0,0,0,.79.32h9.43q6.38,0,9.69-3c2.22-2,3.33-4.92,3.33-8.73v-26.9a10.07,10.07,0,0,1,1.43-5.87,6,6,0,0,1,4.58-2.25h4.39a1.09,1.09,0,0,0,1.11-1.21v-16.5A1.09,1.09,0,0,0,342.18,240.54Z" transform="translate(-156.71 -157.12)"/><path d="M199.17,254.92V250l27.07-13.54h.5v8.37l-16,7.63,16,7.38v8.62h-.5Z" transform="translate(-156.71 -157.12)"/><path d="M255.05,227.84h11.07L245,272.15H233.87Z" transform="translate(-156.71 -157.12)"/><path d="M273.75,268.46h-.49v-8.62l16-7.38-16-7.63v-8.37h.49L300.83,250v4.92Z" transform="translate(-156.71 -157.12)"/></g></svg>